<?xml version="1.0" encoding="UTF-8"?>
<svg id="Layer_2" data-name="Layer 2" xmlns="http://www.w3.org/2000/svg" viewBox="0 0 280.82 178.46">
  <defs>
    <style>
      .cls-1 {
        fill: #ffdf00;
      }

      .cls-1, .cls-2, .cls-3, .cls-4, .cls-5, .cls-6, .cls-7 {
        stroke-width: 0px;
      }

      .cls-2 {
        fill: #80af25;
      }

      .cls-3 {
        fill: #fff;
      }

      .cls-4 {
        fill: #005f27;
      }

      .cls-5 {
        fill: #008334;
      }

      .cls-6 {
        fill: #1d1d1b;
      }

      .cls-8 {
        fill: none;
        stroke: #1d1d1b;
        stroke-miterlimit: 10;
        stroke-width: 1.48px;
      }

      .cls-7 {
        fill: #e81f25;
      }
    </style>
  </defs>
  <g id="Layer_1-2" data-name="Layer 1">
    <g>
      <path class="cls-3" d="m0,0h280.82v136.54c0,23.13-18.78,41.91-41.91,41.91H41.91c-23.13,0-41.91-18.78-41.91-41.91V0h0Z"/>
      <g>
        <path class="cls-1" d="m163.59,60.29c-.88-12.5-9.4-16.19-14.4-17.27-2.74-.59-5.52-.55-8.05.11-9.63,2.55-12.57,12.03-12.6,12.13l-.07.22.23.03c13.09,1.53,15.97,15.12,16,15.25l.14.72.24-.7c1.66-4.9,4.29-8.22,7.82-9.89,5.1-2.4,10.37-.44,10.42-.42l.29.11-.02-.31Z"/>
        <path class="cls-5" d="m157.12,38.06c-.08-.1-.13-.16-.14-.17l-.58.5s.05.06.08.1c.36.45,1.92,2.6,1.73,5.66-.18,2.93-1.87,5.83-4.98,8.58-.11.07-10.53,6.94-8.66,18.65l.35,2.2.42-2.19c.01-.06,1.15-5.71,5.93-8.91,3.17-2.12,7.21-2.7,12.02-1.73l.5.09-.02-.46c0-.14.44-13.62-6.65-22.32Z"/>
        <path class="cls-2" d="m157.33,38.44c-.22-.41-.51-.79-.87-1.15-1.61-1.6-6.03-5.08-12.21-2.72-.25.1-6.17,2.5-7.43,9.18-.05.27.1.52.36.6.26.08.52-.04.63-.29.96-2.16,3.34-5.72,8.67-5.3.03,0,3.43.4,5.6,3.84.74,1.17.81,2.59.18,3.71-.83,1.46-2.83,3.31-7.78,4.29-.25.03-6.06.88-8.67,7.21l-.15.36.36.15c.05.02,5.42,2.36,8.49,12.52l.76-.2c-.02-.1-1.99-9.86,7.09-16.32.93-.66,1.6-1.23,2.16-1.82,1.98-2.09,6.21-7.64,2.79-14.06Z"/>
        <path class="cls-4" d="m146.53,78.74c3.36-.05,5.97-1.1,7.83-2.1,2.45-1.31,4.53-3.14,6.01-5.28,3.65-5.28,3.43-10.78,3.41-11.01v-.27s-.28-.08-.28-.08c-7.59-2.39-13.62,2.44-13.66,2.48-2.8,2.09-4.22,4.79-4.89,7.36-2.9-9.79-8.73-12.15-9.2-12.52-8.29-4.7-15.66-1.46-18.44.15-.25.15-.36.45-.25.73.11.28.38.43.67.37,6.65-1.41,10.52,7.45,10.55,7.54,1.85,4.33,3.51,6.25,3.58,6.32,3.32,3.89,7.27,5.37,10,5.92,1.4.29,3.82.41,4.66.39Z"/>
      </g>
      <g>
        <path class="cls-7" d="m90.15,86.57h.73c3.79,0,7.58,0,11.36,0,.4,0,.59.1.73.5,3.14,9.04,6.29,18.07,9.44,27.11.05.13.1.26.2.51,3.29-9.43,6.54-18.75,9.8-28.08h12.71v41.86h-10v-24.57c-.38-.17-.42.08-.5.31-.71,2.08-1.42,4.15-2.13,6.23-2.01,5.87-4.02,11.75-6.03,17.62-.05.15-.11.29-.17.45-2.39,0-4.78,0-7.16-.02-.13,0-.31-.21-.36-.37-.94-2.72-1.87-5.44-2.81-8.17-1.79-5.23-3.57-10.45-5.36-15.68-.04-.12-.07-.25-.14-.34-.04-.06-.16-.09-.24-.08-.05,0-.11.1-.12.17-.02.14-.01.28-.01.42,0,7.79,0,15.59,0,23.38v.64h-9.95v-41.86Z"/>
        <path class="cls-7" d="m232.14,128.47h-.57c-3.13,0-6.26-.01-9.4.01-.46,0-.67-.11-.81-.57-.66-2.06-1.37-4.1-2.05-6.15-.1-.3-.22-.41-.55-.41-5.38.01-10.75.01-16.13,0-.33,0-.45.12-.54.41-.67,2.04-1.36,4.07-2.05,6.1-.06.19-.13.38-.2.58h-10.52c.25-.72.49-1.41.73-2.09,4.67-13.12,9.33-26.23,13.99-39.35.12-.34.27-.44.62-.44,4.02.01,8.04.01,12.06,0,.35,0,.51.1.63.44,4.87,13.67,9.75,27.34,14.63,41,.05.13.09.26.15.47Zm-15.43-14.53c-.3-.9-.58-1.74-.85-2.57-1.56-4.73-3.12-9.45-4.68-14.18-.1-.31-.23-.54-.57-.41-.14.05-.27.26-.33.43-1.82,5.42-3.63,10.85-5.45,16.28-.05.14-.08.29-.13.46h12Z"/>
        <path class="cls-7" d="m48.68,86.6h10.11v.59c0,8.09,0,16.18,0,24.27,0,1.49.12,2.95.63,4.37.97,2.68,2.93,4.1,5.72,4.41,1.49.16,2.96.06,4.36-.53,2.02-.84,3.19-2.43,3.67-4.48.29-1.25.42-2.56.43-3.84.04-8.06.02-16.12.02-24.18,0-.2,0-.4,0-.61h10.13c.01.12.04.24.04.36,0,8.82.02,17.64-.03,26.47-.02,3.1-.74,6.05-2.43,8.71-1.85,2.92-4.5,4.82-7.76,5.82-5.2,1.59-10.43,1.58-15.55-.31-4.99-1.84-7.91-5.54-8.91-10.71-.29-1.5-.41-3.06-.41-4.6-.04-8.4-.02-16.8-.02-25.2,0-.17,0-.33,0-.52Z"/>
        <path class="cls-7" d="m156.22,86.57h.51c3.48,0,6.95,0,10.43-.01.37,0,.54.13.7.44,2.77,5.33,5.54,10.66,8.32,15.99.09.16.18.32.3.55.1-.18.19-.32.26-.46,2.77-5.31,5.54-10.62,8.3-15.95.23-.44.48-.57.96-.57,3.4.02,6.79.01,10.19.01h.57c-.13.24-.23.43-.34.62-4.85,8.58-9.71,17.15-14.55,25.73-.15.27-.24.61-.24.92-.01,4.68-.01,9.35-.01,14.03v.58h-10.34v-.54c0-4.71,0-9.41,0-14.12,0-.28-.08-.59-.22-.83-4.85-8.63-9.71-17.25-14.57-25.88-.08-.14-.15-.29-.26-.5Z"/>
        <path class="cls-7" d="m141.77,86.59h9.92v41.84h-9.92v-41.84Z"/>
      </g>
      <g>
        <g>
          <line class="cls-8" x1="169.11" y1="148.88" x2="232.14" y2="148.88"/>
          <line class="cls-8" x1="48.68" y1="148.88" x2="115.28" y2="148.88"/>
        </g>
        <g>
          <path class="cls-6" d="m133.4,140.21v2.77h-3.96v11.91h-2.89v-11.91h-3.94v-2.77h10.8Z"/>
          <path class="cls-6" d="m135.26,150.76c.36,1.31,1.35,1.97,2.96,1.97,1.03,0,1.82-.35,2.35-1.05l2.18,1.26c-1.03,1.5-2.56,2.24-4.57,2.24-1.73,0-3.12-.52-4.17-1.57-1.05-1.05-1.57-2.37-1.57-3.96s.52-2.9,1.55-3.95c1.03-1.06,2.36-1.58,3.99-1.58,1.54,0,2.81.53,3.81,1.59,1,1.06,1.5,2.38,1.5,3.94,0,.35-.04.72-.1,1.11h-7.91Zm-.04-2.1h5.35c-.15-.71-.47-1.24-.95-1.59-.48-.35-1.03-.52-1.65-.52-.73,0-1.33.19-1.8.56-.48.37-.79.89-.94,1.56Z"/>
          <path class="cls-6" d="m153.55,144.4h2.71v10.49h-2.71v-1.24c-.81,1.02-1.95,1.53-3.42,1.53s-2.6-.53-3.6-1.6c-1-1.07-1.5-2.38-1.5-3.93s.5-2.86,1.5-3.93c1-1.07,2.2-1.6,3.6-1.6,1.47,0,2.61.51,3.42,1.53v-1.24Zm-4.99,7.37c.54.55,1.24.83,2.08.83s1.53-.28,2.09-.83c.55-.55.83-1.26.83-2.13s-.28-1.58-.83-2.13c-.55-.55-1.25-.83-2.09-.83s-1.53.28-2.08.83c-.55.55-.82,1.26-.82,2.13s.27,1.58.82,2.13Z"/>
        </g>
      </g>
    </g>
  </g>
</svg>